<svg xmlns="http://www.w3.org/2000/svg" width="420" height="300" viewBox="0 0 420 300" role="img" aria-label="Telkom University">
  <rect width="420" height="300" fill="#ffffff"/>
  <path d="M139 38 C168 31 194 35 210 50 C226 35 252 31 281 38 L281 83 C252 77 229 82 210 99 C191 82 168 77 139 83 Z" fill="#e3222b"/>
  <path d="M153 94 H205 V155 C205 171 214 181 228 181 C242 181 251 171 251 155 V94 H303 V157 C303 205 272 237 228 237 C184 237 153 205 153 157 Z" fill="#8c8c8c"/>
  <text x="210" y="270" text-anchor="middle" font-family="Arial, Helvetica, sans-serif" font-size="34" font-weight="800" fill="#5a5a5a">Telkom University</text>
</svg>
